<svg width="61" height="31" viewBox="0 0 61 31" fill="none" xmlns="http://www.w3.org/2000/svg">
<g opacity="0.3">
<path fill-rule="evenodd" clip-rule="evenodd" d="M31.0594 11.3642C31.0251 14.0656 33.4669 15.5732 35.3063 16.4695C37.1962 17.3892 37.831 17.9789 37.8238 18.8013C37.8094 20.06 36.3162 20.6155 34.9186 20.6371C32.4804 20.675 31.063 19.9789 29.9359 19.4523L29.0576 23.5622C30.1883 24.0833 32.282 24.5378 34.4533 24.5576C39.5496 24.5576 42.884 22.0419 42.9021 18.1412C42.9219 13.191 36.0547 12.9169 36.1016 10.7042C36.1178 10.0333 36.758 9.31736 38.161 9.13522C38.8553 9.04325 40.7723 8.97292 42.9453 9.97379L43.7983 5.99737C42.6298 5.57177 41.1276 5.16421 39.2575 5.16421C34.4605 5.16421 31.0864 7.71417 31.0594 11.3642ZM51.9947 5.50691C51.0642 5.50691 50.2797 6.04973 49.9298 6.88288L42.6497 24.2655H47.7424L48.7559 21.4649L54.9793 21.4649L55.5672 24.2655H60.0558L56.1388 5.50691L51.9947 5.50691ZM52.707 10.5745L54.1767 17.6185H50.1516L52.707 10.5745ZM24.8847 5.50691L20.8704 24.2655H25.7232L29.7357 5.50691H24.8847ZM17.7055 5.50691L12.6542 18.2747L10.611 7.41848C10.3712 6.20662 9.42439 5.50691 8.37303 5.50691H0.115415L0 6.05153C1.69516 6.41942 3.62116 7.01272 4.78794 7.64751C5.50207 8.03523 5.70585 8.37427 5.94029 9.29579L9.81032 24.2655H14.9391L22.8018 5.50691L17.7055 5.50691Z" fill="white"/>
</g>
</svg>
