<svg width="118" height="31" viewBox="0 0 118 31" fill="none" xmlns="http://www.w3.org/2000/svg">
<g opacity="0.3">
<path fill-rule="evenodd" clip-rule="evenodd" d="M67.1495 12.6665V15.7751V18.8837H65.7976V18.1289C65.3689 18.6887 64.7183 19.04 63.8339 19.04C62.0905 19.04 60.7238 17.6748 60.7238 15.7751C60.7238 13.8769 62.0905 12.5102 63.8339 12.5102C64.7183 12.5102 65.3689 12.8615 65.7976 13.4213V12.6665H67.1495ZM64.0022 13.7845C62.832 13.7845 62.1158 14.6822 62.1158 15.775C62.1158 16.8678 62.832 17.7655 64.0022 17.7655C65.1202 17.7655 65.8751 16.9065 65.8751 15.775C65.8751 14.6435 65.1202 13.7845 64.0022 13.7845ZM112.832 15.775C112.832 14.6822 113.548 13.7845 114.718 13.7845C115.838 13.7845 116.591 14.6435 116.591 15.775C116.591 16.9065 115.838 17.7655 114.718 17.7655C113.548 17.7655 112.832 16.8678 112.832 15.775ZM117.867 10.1698V15.7751V18.8837H116.514V18.1289C116.085 18.6887 115.434 19.04 114.55 19.04C112.806 19.04 111.44 17.6748 111.44 15.7751C111.44 13.8769 112.806 12.5102 114.55 12.5102C115.434 12.5102 116.085 12.8615 116.514 13.4213V10.1698H117.867ZM83.9297 13.7207C84.8007 13.7207 85.3605 14.2671 85.5034 15.2289H82.2772C82.4216 14.3311 82.9665 13.7207 83.9297 13.7207ZM80.8599 15.7751C80.8599 13.8367 82.1343 12.5102 83.9566 12.5102C85.6985 12.5102 86.8955 13.8367 86.9089 15.7751C86.9089 15.9567 86.8955 16.1265 86.8821 16.2947H82.2653C82.4603 17.4143 83.2539 17.8177 84.1248 17.8177C84.7486 17.8177 85.4126 17.5825 85.9337 17.1671L86.5962 18.1691C85.8414 18.8063 84.9838 19.04 84.0474 19.04C82.1864 19.04 80.8599 17.7522 80.8599 15.7751ZM100.28 15.775C100.28 14.6822 100.996 13.7845 102.166 13.7845C103.284 13.7845 104.039 14.6435 104.039 15.775C104.039 16.9065 103.284 17.7655 102.166 17.7655C100.996 17.7655 100.28 16.8678 100.28 15.775ZM105.313 12.6665V15.7751V18.8837H103.962V18.1289C103.531 18.6887 102.882 19.04 101.998 19.04C100.254 19.04 98.8877 17.6748 98.8877 15.7751C98.8877 13.8769 100.254 12.5102 101.998 12.5102C102.882 12.5102 103.531 12.8615 103.962 13.4213V12.6665H105.313ZM92.6452 15.7751C92.6452 17.6614 93.9583 19.04 95.9622 19.04C96.8987 19.04 97.5225 18.8316 98.1984 18.2986L97.5493 17.2058C97.0416 17.5706 96.5086 17.7656 95.9221 17.7656C94.8427 17.7522 94.0491 16.9721 94.0491 15.7751C94.0491 14.5781 94.8427 13.798 95.9221 13.7846C96.5086 13.7846 97.0416 13.9796 97.5493 14.3444L98.1984 13.2516C97.5225 12.7186 96.8987 12.5102 95.9622 12.5102C93.9583 12.5102 92.6452 13.8888 92.6452 15.7751ZM108.435 13.4219C108.787 12.8755 109.294 12.5107 110.075 12.5107C110.348 12.5107 110.739 12.5628 111.038 12.6804L110.621 13.9548C110.335 13.8372 110.049 13.7985 109.775 13.7985C108.891 13.7985 108.449 14.3702 108.449 15.399V18.8843H107.095V12.667H108.435V13.4219ZM73.8357 13.1608C73.1851 12.732 72.2888 12.5102 71.3003 12.5102C69.7251 12.5102 68.7113 13.265 68.7113 14.5007C68.7113 15.5146 69.4661 16.1399 70.8566 16.3349L71.4953 16.4257C72.2367 16.5299 72.5866 16.725 72.5866 17.0763C72.5866 17.5572 72.0923 17.8311 71.1693 17.8311C70.2328 17.8311 69.5569 17.5319 69.1013 17.1805L68.4641 18.2331C69.2055 18.7795 70.142 19.04 71.1559 19.04C72.9514 19.04 73.992 18.1944 73.992 17.0108C73.992 15.918 73.1732 15.3463 71.8199 15.1513L71.1827 15.059C70.5976 14.9816 70.1286 14.8654 70.1286 14.4486C70.1286 13.993 70.5708 13.7206 71.3122 13.7206C72.1057 13.7206 72.8739 14.0198 73.2506 14.2535L73.8357 13.1608ZM89.6408 13.4219C89.9907 12.8755 90.4984 12.5107 91.2785 12.5107C91.5524 12.5107 91.9425 12.5628 92.2418 12.6804L91.8249 13.9548C91.539 13.8372 91.2532 13.7985 90.9793 13.7985C90.0949 13.7985 89.6527 14.3702 89.6527 15.399V18.8843H88.3009V12.667H89.6408V13.4219ZM79.7417 12.6665H77.5309V10.7802L76.1642 10.7802V12.6665H74.9031V13.9022H76.1642V16.7384C76.1642 18.181 76.7239 19.04 78.3229 19.04C78.9095 19.04 79.5854 18.8584 80.0142 18.5592L79.6241 17.4009C79.2207 17.6346 78.7785 17.7522 78.4271 17.7522C77.7512 17.7522 77.5309 17.3354 77.5309 16.7116V13.9022H79.7417V12.6665ZM59.5283 14.9822V18.8843H58.1616V15.4243C58.1616 14.3703 57.7194 13.7852 56.7963 13.7852C55.8986 13.7852 55.2748 14.3584 55.2748 15.4377V18.8843H53.9081V15.4243C53.9081 14.3703 53.454 13.7852 52.5562 13.7852C51.6317 13.7852 51.0332 14.3584 51.0332 15.4377V18.8843H49.668V12.6671H51.0213V13.4338C51.529 12.7058 52.1781 12.5107 52.8421 12.5107C53.7919 12.5107 54.4679 12.9276 54.8966 13.6169C55.4698 12.7445 56.2887 12.4973 57.0822 12.5107C58.5918 12.5241 59.5283 13.5127 59.5283 14.9822Z" fill="white"/>
<path d="M16.4802 15.0516C16.4802 10.8895 18.4289 7.18196 21.4636 4.79269C19.2444 3.04553 16.4437 2.00271 13.3998 2.00271C6.19382 2.00271 0.352539 7.84482 0.352539 15.0516C0.352539 22.2585 6.19382 28.1006 13.3998 28.1006C16.4437 28.1006 19.2444 27.0578 21.4636 25.3106C18.4289 22.9213 16.4802 19.2138 16.4802 15.0516Z" fill="white"/>
<g opacity="0.4">
<path d="M42.5755 15.0516C42.5755 22.2585 36.7343 28.1006 29.5283 28.1006C26.4844 28.1006 23.6837 27.0578 21.4636 25.3106C24.4992 22.9213 26.4479 19.2138 26.4479 15.0516C26.4479 10.8895 24.4992 7.18196 21.4636 4.79269C23.6837 3.04553 26.4844 2.00271 29.5283 2.00271C36.7343 2.00271 42.5755 7.84482 42.5755 15.0516Z" fill="white"/>
</g>
<path opacity="0.6" fill-rule="evenodd" clip-rule="evenodd" d="M21.4646 25.3099C24.4996 22.9206 26.448 19.2134 26.448 15.0516C26.448 10.8895 24.4992 7.18197 21.4637 4.79269C18.429 7.18197 16.4802 10.8895 16.4802 15.0516C16.4802 19.2134 18.4286 22.9206 21.4628 25.3099H21.4646ZM21.4637 4.79269C21.4637 4.79269 21.4637 4.79268 21.4637 4.79268C21.464 4.79245 21.4643 4.79222 21.4646 4.79199H21.4628L21.4637 4.79269Z" fill="white"/>
</g>
</svg>
