<svg width="20" height="15" viewBox="0 0 20 15" fill="none" xmlns="http://www.w3.org/2000/svg">
<g opacity="0.3" clip-path="url(#clip0)">
<path opacity="0.3" fill-rule="evenodd" clip-rule="evenodd" d="M12.7556 7.15855L7.77783 3.73633L13.3778 6.81633L12.7556 7.15855Z" fill="white"/>
<path fill-rule="evenodd" clip-rule="evenodd" d="M7.77778 9.64737V3.73626L13.3778 6.70211L7.77778 9.64737ZM18.9105 1.05781C18.1538 0.265654 17.3056 0.261721 16.9166 0.215359C14.1318 0.0141602 9.9545 0.0141602 9.9545 0.0141602C9.94585 0.0141602 5.76865 0.0141602 2.98378 0.215359C2.59478 0.261721 1.74686 0.265654 0.989847 1.05781C0.393176 1.66137 0.199014 3.03195 0.199014 3.03195C0.199014 3.03195 0 4.64146 0 6.25096V7.75986C0 9.36933 0.199014 10.9788 0.199014 10.9788C0.199014 10.9788 0.393176 12.3494 0.989847 12.953C1.74686 13.7452 2.74125 13.7201 3.18414 13.8031C4.77619 13.9557 9.9502 14.0029 9.9502 14.0029C9.9502 14.0029 14.1318 13.9966 16.9166 13.7955C17.3056 13.7491 18.1538 13.7452 18.9105 12.953C19.5072 12.3494 19.7017 10.9788 19.7017 10.9788C19.7017 10.9788 19.9004 9.36933 19.9004 7.75986V6.25096C19.9004 4.64146 19.7017 3.03195 19.7017 3.03195C19.7017 3.03195 19.5072 1.66137 18.9105 1.05781Z" fill="white"/>
</g>
<defs>
<clipPath id="clip0">
<rect width="20" height="14" fill="white" transform="translate(0 0.00292969)"/>
</clipPath>
</defs>
</svg>
