<svg width="130" height="24" viewBox="0 0 130 24" fill="none" xmlns="http://www.w3.org/2000/svg">
<path fill-rule="evenodd" clip-rule="evenodd" d="M25 12.5C24.9252 18.2744 19.4415 19.0151 15 19.5C10.6307 19.0151 5.07483 18.2744 5 12.5V0.5H0V11.5C0 20.7262 6.55398 23.5 15 23.5C23.5102 23.5 30 20.7262 30 11.5V0.5L25 5.5V12.5ZM63 0.5H33V4.5H45V22.5H51V4.5H63V0.5ZM67 0.5H92V4.5H72V9.5H87L92 4.5L87 13.5H72V18.5H92V22.5H67V0.5ZM104 22.5L112 14.5L120 22.5H126L117 12.5L130 0.5H123L112 11.5L101 0.5H94L107 12.5L98 22.5H104Z" fill="white"/>
</svg>
