<svg width="449" height="86" viewBox="0 0 449 86" fill="none" xmlns="http://www.w3.org/2000/svg">
<path fill-rule="evenodd" clip-rule="evenodd" d="M264.586 0.671875C242.32 0.671875 224.492 19.8835 224.492 44.6188C224.492 66.7779 242.386 85.9197 264.586 85.9197C286.787 85.9197 304.681 66.7779 304.681 44.6188C304.681 19.8835 286.851 0.671875 264.586 0.671875ZM227.71 44.6188C227.71 21.4099 244.343 3.89994 264.586 3.89994C284.828 3.89994 301.462 21.4099 301.462 44.6188C301.462 65.112 284.894 82.6916 264.586 82.6916C244.277 82.6916 227.71 65.112 227.71 44.6188ZM62.45 83.7473L32.6297 2.62203L0.116211 83.7034L3.10239 84.9078L11.3041 64.4546H51.928L59.43 84.8639L62.45 83.7473ZM50.7413 61.2265L32.4991 11.5991L12.5986 61.2265H50.7413ZM419.079 2.62203L448.9 83.7473L445.881 84.8639L438.731 65.4158H397.37L389.553 84.9078L386.566 83.7034L419.079 2.62203ZM398.664 62.1877L418.949 11.5991L437.545 62.1877H398.664ZM75.3661 53.7492V3.89404H78.5847V53.7492C78.5847 69.7336 91.5047 82.6916 107.442 82.6916C123.38 82.6916 136.3 69.7336 136.3 53.7492V3.89404H139.519V53.7492C139.519 71.5163 125.158 85.9197 107.442 85.9197C89.7272 85.9197 75.3661 71.5163 75.3661 53.7492ZM343.363 50.3313H323.922V84.3058H320.703V3.88852H344.064C356.852 3.88852 367.218 14.2851 367.218 27.1099C367.218 36.5337 361.62 44.6464 353.579 48.2865C358.44 49.9993 361.865 53.3697 364.181 56.9949C367.454 62.1201 368.594 67.8601 368.594 70.4693V78.5485C368.594 78.9136 368.738 79.3565 369.097 79.8803C369.456 80.4022 369.965 80.9133 370.528 81.3779C371.085 81.8371 371.65 82.2147 372.079 82.4787C372.292 82.6098 372.469 82.7102 372.588 82.7765L372.662 82.8175L372.721 82.849L372.75 82.8648L372.755 82.8667C372.755 82.8666 372.754 82.8664 372.026 84.3058C371.299 85.7452 371.297 85.745 371.297 85.7449L371.289 85.7405L371.271 85.7318L371.218 85.7034L371.154 85.6696C371.12 85.6506 371.078 85.628 371.032 85.6022C370.876 85.5157 370.657 85.3909 370.398 85.2316C369.883 84.9149 369.187 84.4517 368.482 83.8707C367.786 83.2949 367.034 82.5663 366.447 81.7095C365.859 80.8543 365.375 79.7796 365.375 78.5485V70.4693C365.375 68.4648 364.404 63.3311 361.471 58.7359C358.587 54.2218 353.894 50.3358 346.369 50.3358H343.363V50.3313ZM161.381 50.3313H180.821V50.3358H183.828C191.353 50.3358 196.046 54.2218 198.929 58.7359C201.863 63.3311 202.834 68.4648 202.834 70.4693V78.5485C202.834 79.7796 203.318 80.8543 203.905 81.7095C204.493 82.5663 205.244 83.2949 205.941 83.8707C206.646 84.4517 207.341 84.9149 207.856 85.2316C208.115 85.3909 208.334 85.5157 208.49 85.6022C208.568 85.6454 208.632 85.6793 208.677 85.7034L208.73 85.7318L208.748 85.7405L208.756 85.7449C208.756 85.745 208.758 85.7452 209.485 84.3058C210.212 82.8664 210.214 82.8666 210.214 82.8667L210.209 82.8648L210.18 82.849L210.121 82.8172L210.047 82.7765C209.928 82.7102 209.751 82.6098 209.538 82.4787C209.108 82.2147 208.544 81.8371 207.987 81.3779C207.423 80.9133 206.915 80.4022 206.556 79.8803C206.197 79.3565 206.052 78.9136 206.052 78.5485V70.4693C206.052 67.8601 204.913 62.1201 201.64 56.9949C199.324 53.3697 195.899 49.9993 191.037 48.2865C199.079 44.6464 204.676 36.5337 204.676 27.1099C204.676 14.2851 194.311 3.88852 181.523 3.88852H158.163V84.3058H161.381V50.3313ZM344.064 47.1033H323.922V7.11659H344.064C355.074 7.11659 363.999 16.0679 363.999 27.1099C363.999 38.152 355.074 47.1033 344.064 47.1033ZM161.381 47.1033H181.523C192.532 47.1033 201.458 38.152 201.458 27.1099C201.458 16.0679 192.532 7.11659 181.523 7.11659H161.381V47.1033Z" fill="white"/>
</svg>
